<?xml version="1.0" encoding="iso-8859-1"?>
<!-- Uploaded to: SVG Repo, www.svgrepo.com, Generator: SVG Repo Mixer Tools -->
<svg fill="orange" height="800px" width="800px" version="1.1" id="Layer_1" xmlns="http://www.w3.org/2000/svg" xmlns:xlink="http://www.w3.org/1999/xlink" 
	 viewBox="0 0 512 512" xml:space="preserve">
<g>
	<g>
		<path d="M377.408,213.333H277.333v-128c0-11.755,9.579-21.333,21.333-21.333C310.421,64,320,73.579,320,85.333v21.333
			c0,35.285,28.715,64,64,64c35.285,0,64-28.715,64-64V21.333C448,9.557,438.443,0,426.667,0s-21.333,9.557-21.333,21.333v85.333
			c0,11.755-9.579,21.333-21.333,21.333c-11.755,0-21.333-9.579-21.333-21.333V85.333c0-35.285-28.715-64-64-64
			c-35.285,0-64,28.715-64,64v128h-98.283C61.184,213.333,0,280.32,0,362.667C0,433.941,48.064,510.976,119.637,512h2.069
			c18.795,0,49.323-3.413,81.152-13.12c33.365-10.197,74.773-10.197,108.053-0.021c34.133,10.453,70.677,12.992,83.328,13.141
			C466.987,510.613,512,433.408,512,362.667C512,280.32,451.627,213.333,377.408,213.333z M192,384h-21.333v21.333
			c0,11.776-9.557,21.333-21.333,21.333S128,417.109,128,405.333V384h-21.333c-11.776,0-21.333-9.557-21.333-21.333
			s9.557-21.333,21.333-21.333H128V320c0-11.776,9.557-21.333,21.333-21.333s21.333,9.557,21.333,21.333v21.333H192
			c11.776,0,21.333,9.557,21.333,21.333S203.776,384,192,384z M362.667,298.667c11.776,0,21.333,9.557,21.333,21.333
			s-9.557,21.333-21.333,21.333s-21.333-9.557-21.333-21.333S350.891,298.667,362.667,298.667z M320,384
			c-11.776,0-21.333-9.557-21.333-21.333s9.557-21.333,21.333-21.333s21.333,9.557,21.333,21.333S331.776,384,320,384z
			 M362.667,426.667c-11.776,0-21.333-9.557-21.333-21.333S350.891,384,362.667,384S384,393.557,384,405.333
			S374.443,426.667,362.667,426.667z M405.333,384C393.557,384,384,374.443,384,362.667s9.557-21.333,21.333-21.333
			s21.333,9.557,21.333,21.333S417.109,384,405.333,384z"/>
	</g>
</g>
</svg>